<?xml version="1.0" standalone="no"?><!DOCTYPE svg PUBLIC "-//W3C//DTD SVG 1.1//EN" "http://www.w3.org/Graphics/SVG/1.1/DTD/svg11.dtd"><svg t="1650282284029" class="icon" viewBox="0 0 1024 1024" version="1.1" xmlns="http://www.w3.org/2000/svg" p-id="2161" xmlns:xlink="http://www.w3.org/1999/xlink" width="200" height="200"><defs><style type="text/css">@font-face { font-family: feedback-iconfont; src: url("//at.alicdn.com/t/font_1031158_u69w8yhxdu.woff2?t=1630033759944") format("woff2"), url("//at.alicdn.com/t/font_1031158_u69w8yhxdu.woff?t=1630033759944") format("woff"), url("//at.alicdn.com/t/font_1031158_u69w8yhxdu.ttf?t=1630033759944") format("truetype"); }
</style></defs><path d="M754.653323 532.190343c-17.342725 0-34.591618-3.055681-51.595729-9.211921a16.318725 16.318725 0 0 1 11.108972-30.687362c57.751968 20.904287 109.094757-8.094088 142.005546-36.113339 40.629546-34.587538 76.54706-87.447968 96.076494-141.397673 18.933801-52.297434 15.054024-102.861004-10.366471-135.261833-20.667665-26.342502-53.427506-37.908398-94.754677-33.469705a16.322805 16.322805 0 0 1-3.488127-32.449785c52.301514-5.642199 96.341673 10.62349 123.920318 45.769944 32.417147 41.314932 38.165418 103.566789 15.376319 166.516271-21.369371 59.041147-60.848446 117.037896-105.606629 155.13804-39.858486 33.934789-81.507952 51.167363-122.676016 51.167363zM269.346677 532.186263c-41.172143 0-82.81345-17.236653-122.663777-51.159203C101.924717 442.930996 62.445641 384.934247 41.068112 325.8931c-22.7891-62.953562-17.040829-125.201339 15.380398-166.520351 27.578645-35.146454 71.578008-51.403984 123.916239-45.769944a16.314645 16.314645 0 0 1 14.478789 17.970996 16.306486 16.306486 0 0 1-17.970996 14.478789c-41.331251-4.446853-74.082932 7.127203-94.750598 33.469705-25.424574 32.400829-29.300271 82.968478-10.37055 135.261832 19.533514 53.953785 55.446948 106.810135 96.076494 141.393594 32.906709 28.015171 84.265817 57.025785 141.997387 36.109259a16.318725 16.318725 0 1 1 11.113052 30.687363c-16.991873 6.152159-34.253004 9.21192-51.59165 9.21192z" fill="#6E6E96" p-id="2162"></path><path d="M337.762932 566.549418l0.110152 0.073435c0.138709 0.077514 0.273339 0.159108 0.420207 0.236621 10.174725 5.866582 164.770167 98.202008 70.937498 253.556271h203.984064c-60.775012-138.607171 41.788175-242.092367 77.154932-267.790279a337.051028 337.051028 0 0 0 8.889625-6.152159c0.057116-0.036717 0.093833-0.069355 0.093833-0.069355h-0.012239C955.349163 344.814661 812.270661 20.398406 812.270661 20.398406H205.418072s-134.066486 340.763538 132.34486 546.151012z" fill="#FFE600" p-id="2163"></path><path d="M414.444622 566.851315c-0.138709-0.077514-0.273339-0.159108-0.420208-0.236622l-0.110151-0.073434C147.506996 361.161944 350.854629 20.398406 350.854629 20.398406H208.139219S74.072733 361.161944 340.48 566.549418l0.110151 0.073435c0.138709 0.077514 0.273339 0.159108 0.420208 0.236621 10.174725 5.866582 164.770167 98.202008 70.937498 253.556271h73.434263c18.195378-155.354263-60.762773-247.689689-70.937498-253.56443z" fill="#FFF9C2" p-id="2164"></path><path d="M370.294311 416.674167a16.318725 16.318725 0 0 1-14.711331-9.240478c-62.647586-130.019442-25.08188-209.475315-23.454088-212.792095a16.318725 16.318725 0 1 1 29.341068 14.291123c-0.579315 1.256542-31.470661 70.215394 23.515283 184.336319a16.318725 16.318725 0 0 1-14.690932 23.405131z" fill="#E6A645" p-id="2165"></path><path d="M559.636398 820.415745S467.223458 637.858167 690.720637 456.924303c171.346614-138.709163 65.2749-436.525896-122.390438-436.525897h243.944542s96.296797 237.706709 9.86059 365.878056c-86.440287 128.171347-288.833275 305.580367-206.044303 410.456733l-56.45463 23.68255z" fill="#E6A645" opacity=".38" p-id="2166"></path><path d="M699.859124 923.419538L699.275729 1003.601594H325.262789l0.791458-80.190216 38.291888-102.995633h289.657371z" fill="#DFDFF7" p-id="2167"></path><path d="M613.214853 836.73447h-203.984064a16.322805 16.322805 0 0 1-13.968829-24.755506c25.538805-42.281817 33.486024-83.147984 23.617275-121.456191-17.102024-66.376414-81.006151-105.059952-88.655554-109.482327l-0.301896-0.171346a17.28561 17.28561 0 0 1-2.117355-1.395251c-113.096924-87.195028-172.725546-212.73498-172.431808-363.050837 0.216223-112.648159 33.449307-198.40306 34.864956-201.997259A16.302406 16.302406 0 0 1 205.418072 4.079681h606.852589a16.318725 16.318725 0 0 1 14.931634 9.73412c1.509482 3.431012 37.080223 85.220462 40.915123 193.413609 5.11592 144.326884-49.608924 265.921785-158.279394 351.680765l-0.301897 0.248861c-0.248861 0.199904-0.530359 0.412048-0.811856 0.607872a359.734056 359.734056 0 0 1-8.950821 6.205196c-5.809466 4.35302-134.882422 103.607586-71.614725 247.893673a16.322805 16.322805 0 0 1-1.28102 15.48239 16.339124 16.339124 0 0 1-13.662852 7.388303z m-176.748112-32.63745h153.041084c-41.310853-125.988717 39.642263-227.160733 91.26655-264.673402 0.167267-0.118311 0.338614-0.240701 0.50996-0.350853 2.741546-1.839936 5.462693-3.71251 8.138964-5.62996 101.730932-80.190215 150.878853-189.558311 146.077068-325.056765-2.880255-81.185657-25.134916-147.566151-34.269323-171.668909H216.95949c-8.510215 25.583681-28.961657 95.901068-28.957578 180.835953 0.008159 140.936669 53.472382 253.792892 158.911745 335.447713 11.447586 6.715155 83.551873 51.689562 103.566789 129.378932 10.138008 39.328127 5.413737 80.169817-14.013705 121.717291z" fill="#6E6E96" p-id="2168"></path><path d="M326.054247 923.411378h373.217402V1003.601594H326.054247z" fill="#C1C1E0" p-id="2169"></path><path d="M593.595665 923.411378V1003.601594h-150.948207v-80.190216l16.318725-102.995633h101.992032z" fill="#FFFFFF" opacity=".39" p-id="2170"></path><path d="M699.275729 1019.920319H325.262789a16.335044 16.335044 0 0 1-16.318725-16.481913l0.791458-80.190215c0.020398-1.888892 0.363092-3.757386 1.01992-5.523888l38.291889-102.995634a16.318725 16.318725 0 0 1 15.298804-10.631649h289.657371a16.318725 16.318725 0 0 1 14.907155 9.681084l45.855618 103.003792a16.400319 16.400319 0 0 1 1.41157 6.755953l-0.587474 80.182055a16.318725 16.318725 0 0 1-16.314646 16.200415z m-357.535107-32.63745h341.334693l0.440605-60.452718-40.111426-90.095681H375.687649l-33.343235 89.687713L341.740622 987.282869z" fill="#6E6E96" p-id="2171"></path><path d="M691.508016 939.730104H326.054247a16.318725 16.318725 0 0 1 0-32.637451h365.453769a16.318725 16.318725 0 0 1 0 32.637451z" fill="#6E6E96" p-id="2172"></path><path d="M93.834709 673.14741h97.912351v32.637451h-97.912351z" fill="#6E6E96" p-id="2173"></path><path d="M126.472159 626.231076h32.637451V791.458167h-32.637451z" fill="#6E6E96" p-id="2174"></path><path d="M812.764303 803.615618h89.026805v32.63745h-89.026805z" fill="#6E6E96" p-id="2175"></path><path d="M840.95898 762.439394h32.63745v150.230184h-32.63745z" fill="#6E6E96" p-id="2176"></path></svg>